<svg width="112" height="54" viewBox="0 0 112 54" fill="none" xmlns="http://www.w3.org/2000/svg">
<g clip-path="url(#clip0_73_2804)">
<path d="M85.215 53.5662C80.3278 53.5728 75.5324 52.2396 71.3499 49.7116C67.1675 47.1835 63.758 43.5574 61.4922 39.2272L63.7496 38.0404C65.7997 41.9587 68.8846 45.2401 72.6691 47.5278C76.4536 49.8155 80.7928 51.0219 85.215 51.0161C98.5771 51.0161 109.448 40.1454 109.448 26.7833C109.448 13.4212 98.5771 2.55025 85.215 2.55025C82.0314 2.54156 78.8777 3.16441 75.9365 4.38274C72.9953 5.60108 70.3249 7.3907 68.08 9.64801L66.2763 7.84501C68.7576 5.35006 71.709 3.37204 74.9598 2.02545C78.2107 0.678867 81.6963 -0.00953335 85.215 9.97175e-05C99.9831 9.97175e-05 111.998 12.0149 111.998 26.7833C111.998 41.5514 99.9831 53.5662 85.215 53.5662Z" fill="#00EDC2"/>
<path d="M58.9014 31.78C58.2823 28.4865 58.2806 25.1066 58.8964 21.8125L61.496 21.8125C60.8153 25.0945 60.8159 28.4814 61.4979 31.7631L58.9014 31.78Z" fill="#00EDC2"/>
<path d="M70.826 30.5475V34.3376L68.3281 35.6461V26.7994C68.3281 23.8237 70.6661 21.6211 73.7638 21.6211C76.8611 21.6211 79.1792 23.8044 79.1792 26.7994C79.1792 29.7747 76.9208 31.9581 74.0433 31.9581C72.7843 31.958 71.5057 31.4362 70.826 30.5475ZM73.7638 29.62C75.3823 29.62 76.6413 28.4027 76.6413 26.7994C76.6413 25.1956 75.3823 23.9783 73.7638 23.9783C72.1251 23.9783 70.8661 25.1956 70.8661 26.7994C70.8661 28.4027 72.1251 29.62 73.7638 29.62Z" fill="#EDEDED"/>
<path d="M86.1157 31.9581C83.0585 31.9581 80.8203 29.7747 80.8203 26.7994C80.8203 23.8044 83.0585 21.6211 86.1157 21.6211C88.7336 21.6211 90.7718 23.2441 91.2115 25.6013H88.6139C88.2541 24.6353 87.2749 23.9784 86.0958 23.9784C84.5171 23.9784 83.3583 25.1761 83.3583 26.7994C83.3583 28.4223 84.5171 29.6201 86.0958 29.6201C87.2547 29.6201 88.2541 28.9631 88.6139 27.9971H91.2115C90.7519 30.3543 88.7336 31.9581 86.1157 31.9581Z" fill="#EDEDED"/>
<path d="M92.4316 28.654H95.0296C95.3294 29.5234 96.2485 29.9291 97.5473 29.9291C98.7662 29.9291 99.5458 29.5427 99.5458 28.8087C99.5458 28.1518 98.9662 27.9005 98.1667 27.8427L95.9086 27.6492C94.1701 27.4948 92.6916 26.6062 92.6916 24.8093C92.6916 22.7803 94.5299 21.6211 97.1076 21.6211C99.6456 21.6211 101.524 22.761 101.924 24.8478H99.306C98.9861 24.0361 98.0669 23.6497 97.1076 23.6497C95.8688 23.6497 95.1695 24.0169 95.1695 24.6931C95.1695 25.3308 95.709 25.5628 96.5081 25.6206L98.6863 25.7945C100.685 25.9492 102.024 26.7798 102.024 28.6155C102.024 30.8181 100.025 31.9581 97.3875 31.9581C94.7298 31.9581 92.8113 30.7988 92.4316 28.654Z" fill="#EDEDED"/>
<path d="M2.49783 30.5475V34.3345L0 35.6307V26.7994C0 23.8237 2.338 21.6211 5.43534 21.6211C8.53268 21.6211 10.8508 23.8044 10.8508 26.7994C10.8508 29.7747 8.59268 31.9581 5.71503 31.9581C4.45617 31.9581 3.17725 31.4362 2.49783 30.5475ZM5.43534 29.62C7.05397 29.62 8.313 28.4027 8.313 26.7994C8.313 25.1957 7.05397 23.9784 5.43534 23.9784C3.79665 23.9784 2.53779 25.1957 2.53779 26.7994C2.53779 28.4027 3.79665 29.62 5.43534 29.62Z" fill="#00EDC2"/>
<path d="M13.0312 26.7994C13.0312 23.7659 15.3094 21.6211 18.4268 21.6211C21.5641 21.6211 23.8222 23.7659 23.8222 26.7994C23.8222 29.8325 21.5641 31.9581 18.4268 31.9581C15.3094 31.9581 13.0312 29.8325 13.0312 26.7994ZM21.2844 26.7994C21.2844 25.1568 20.1253 23.9784 18.4268 23.9784C16.7481 23.9784 15.5692 25.1568 15.5692 26.7994C15.5692 28.4223 16.7481 29.6201 18.4268 29.6201C20.1253 29.6201 21.2844 28.4223 21.2844 26.7994Z" fill="#00EDC2"/>
<path d="M29.2771 17.832V31.763H26.7793V17.832H29.2771Z" fill="#00EDC2"/>
<path d="M32.2168 28.654H34.8146C35.1143 29.5234 36.0337 29.9291 37.3325 29.9291C38.5516 29.9291 39.3308 29.5427 39.3308 28.8087C39.3308 28.1518 38.7513 27.9005 37.952 27.8427L35.6939 27.6492C33.9555 27.4948 32.4766 26.6062 32.4766 24.8093C32.4766 22.7803 34.3151 21.6211 36.893 21.6211C39.4307 21.6211 41.3092 22.761 41.7089 24.8478H39.091C38.7714 24.0361 37.8521 23.6497 36.893 23.6497C35.654 23.6497 34.9545 24.0169 34.9545 24.6931C34.9545 25.3308 35.494 25.5628 36.2935 25.6206L38.4716 25.7945C40.4699 25.9492 41.8087 26.7798 41.8087 28.6155C41.8087 30.8181 39.8104 31.9581 37.1727 31.9581C34.5148 31.9581 32.5965 30.7988 32.2168 28.654Z" fill="#00EDC2"/>
<path d="M44.8262 17.832H47.324V31.763H44.8262V17.832ZM48.0634 26.5847C48.0634 26.1791 48.1233 25.9666 48.7428 25.3097L52.06 21.8125H55.0975L51.0808 26.0244C50.901 26.2176 50.8211 26.353 50.8211 26.5074C50.8211 26.6236 50.901 26.7587 51.0808 26.9519L55.3173 31.763H52.0799L48.7228 27.8794C48.1833 27.2224 48.0634 26.9519 48.0634 26.5847Z" fill="#00EDC2"/>
<path d="M62.5822 16.4925C63.4355 16.4925 64.1273 15.8008 64.1273 14.9474C64.1273 14.0941 63.4355 13.4023 62.5822 13.4023C61.7289 13.4023 61.0371 14.0941 61.0371 14.9474C61.0371 15.8008 61.7289 16.4925 62.5822 16.4925Z" fill="#00EDC2"/>
</g>
<defs>
<clipPath id="clip0_73_2804">
<rect width="112" height="53.5661" fill="white"/>
</clipPath>
</defs>
</svg>
